<svg width="1200" height="630" xmlns="http://www.w3.org/2000/svg">
  <rect width="1200" height="630" fill="#FFFFFF"/>
  <rect x="50" y="50" width="1100" height="530" fill="#F9FAFB" stroke="#E5E7EB" stroke-width="1"/>
  
  <!-- Header -->
  <rect x="50" y="50" width="1100" height="80" fill="#1E3A8A"/>
  <text x="100" y="100" font-family="Arial, sans-serif" font-size="28" font-weight="bold" fill="#FFFFFF">Analytics Dashboard</text>
  <text x="1050" y="100" font-family="Arial, sans-serif" font-size="16" text-anchor="end" fill="#93C5FD">Last 30 Days</text>
  
  <!-- Metric Cards -->
  <g transform="translate(100, 170)">
    <rect width="240" height="120" rx="8" fill="#FFFFFF" stroke="#E5E7EB" stroke-width="1"/>
    <text x="20" y="35" font-family="Arial, sans-serif" font-size="14" fill="#6B7280">Total Visitors</text>
    <text x="20" y="70" font-family="Arial, sans-serif" font-size="32" font-weight="bold" fill="#1E3A8A">24,847</text>
    <text x="20" y="95" font-family="Arial, sans-serif" font-size="14" fill="#10B981">↑ 12.5%</text>
  </g>
  
  <g transform="translate(370, 170)">
    <rect width="240" height="120" rx="8" fill="#FFFFFF" stroke="#E5E7EB" stroke-width="1"/>
    <text x="20" y="35" font-family="Arial, sans-serif" font-size="14" fill="#6B7280">Conversion Rate</text>
    <text x="20" y="70" font-family="Arial, sans-serif" font-size="32" font-weight="bold" fill="#1E3A8A">3.4%</text>
    <text x="20" y="95" font-family="Arial, sans-serif" font-size="14" fill="#10B981">↑ 0.8%</text>
  </g>
  
  <g transform="translate(640, 170)">
    <rect width="240" height="120" rx="8" fill="#FFFFFF" stroke="#E5E7EB" stroke-width="1"/>
    <text x="20" y="35" font-family="Arial, sans-serif" font-size="14" fill="#6B7280">Revenue</text>
    <text x="20" y="70" font-family="Arial, sans-serif" font-size="32" font-weight="bold" fill="#1E3A8A">$15,420</text>
    <text x="20" y="95" font-family="Arial, sans-serif" font-size="14" fill="#10B981">↑ 23.1%</text>
  </g>
  
  <g transform="translate(910, 170)">
    <rect width="240" height="120" rx="8" fill="#FFFFFF" stroke="#E5E7EB" stroke-width="1"/>
    <text x="20" y="35" font-family="Arial, sans-serif" font-size="14" fill="#6B7280">Avg Session</text>
    <text x="20" y="70" font-family="Arial, sans-serif" font-size="32" font-weight="bold" fill="#1E3A8A">2m 34s</text>
    <text x="20" y="95" font-family="Arial, sans-serif" font-size="14" fill="#EF4444">↓ 5.2%</text>
  </g>
  
  <!-- Chart Area -->
  <g transform="translate(100, 320)">
    <rect width="1000" height="230" rx="8" fill="#FFFFFF" stroke="#E5E7EB" stroke-width="1"/>
    <text x="20" y="35" font-family="Arial, sans-serif" font-size="18" font-weight="bold" fill="#1F2937">Traffic Overview</text>
    
    <!-- Simple bar chart -->
    <g transform="translate(50, 70)">
      <!-- Y-axis labels -->
      <text x="-10" y="5" font-family="Arial, sans-serif" font-size="12" text-anchor="end" fill="#6B7280">1000</text>
      <text x="-10" y="55" font-family="Arial, sans-serif" font-size="12" text-anchor="end" fill="#6B7280">500</text>
      <text x="-10" y="105" font-family="Arial, sans-serif" font-size="12" text-anchor="end" fill="#6B7280">0</text>
      
      <!-- Bars -->
      <rect x="20" y="40" width="30" height="60" fill="#38BDF8"/>
      <rect x="60" y="30" width="30" height="70" fill="#38BDF8"/>
      <rect x="100" y="25" width="30" height="75" fill="#38BDF8"/>
      <rect x="140" y="35" width="30" height="65" fill="#38BDF8"/>
      <rect x="180" y="20" width="30" height="80" fill="#38BDF8"/>
      <rect x="220" y="15" width="30" height="85" fill="#1E3A8A"/>
      <rect x="260" y="25" width="30" height="75" fill="#38BDF8"/>
      <rect x="300" y="30" width="30" height="70" fill="#38BDF8"/>
      <rect x="340" y="35" width="30" height="65" fill="#38BDF8"/>
      <rect x="380" y="40" width="30" height="60" fill="#38BDF8"/>
      
      <!-- X-axis labels -->
      <text x="35" y="125" font-family="Arial, sans-serif" font-size="10" text-anchor="middle" fill="#6B7280">Mon</text>
      <text x="155" y="125" font-family="Arial, sans-serif" font-size="10" text-anchor="middle" fill="#6B7280">Wed</text>
      <text x="275" y="125" font-family="Arial, sans-serif" font-size="10" text-anchor="middle" fill="#6B7280">Fri</text>
      <text x="395" y="125" font-family="Arial, sans-serif" font-size="10" text-anchor="middle" fill="#6B7280">Sun</text>
    </g>
  </g>
</svg>