<svg xmlns="http://www.w3.org/2000/svg" version="1.1" xmlns:xlink="http://www.w3.org/1999/xlink" xmlns:svgjs="http://svgjs.dev/svgjs" width="1000" height="1000"><style>
    #light-icon {
      display: inline;
    }
    #dark-icon {
      display: none;
    }

    @media (prefers-color-scheme: dark) {
      #light-icon {
        display: none;
      }
      #dark-icon {
        display: inline;
      }
    }
  </style><g id="light-icon"><svg xmlns="http://www.w3.org/2000/svg" version="1.1" xmlns:xlink="http://www.w3.org/1999/xlink" xmlns:svgjs="http://svgjs.dev/svgjs" width="1000" height="1000"><g clip-path="url(#SvgjsClipPath1026)"><rect width="1000" height="1000" fill="#ffffff"></rect><g transform="matrix(5,0,0,5,0,0)"><svg xmlns="http://www.w3.org/2000/svg" version="1.1" xmlns:xlink="http://www.w3.org/1999/xlink" xmlns:svgjs="http://svgjs.dev/svgjs" width="200" height="200"><svg width="200" height="200" viewBox="0 0 200 200" xmlns="http://www.w3.org/2000/svg">
    <!-- Background Circle -->
    <circle cx="100" cy="100" r="95" fill="#1E3A8A" stroke="#38BDF8" stroke-width="5"></circle>
    
    <!-- Neural Network Inspired Lines -->
    <line x1="50" y1="50" x2="150" y2="50" stroke="#38BDF8" stroke-width="3"></line>
    <line x1="50" y1="50" x2="50" y2="150" stroke="#38BDF8" stroke-width="3"></line>
    <line x1="150" y1="50" x2="150" y2="150" stroke="#38BDF8" stroke-width="3"></line>
    <line x1="50" y1="150" x2="150" y2="150" stroke="#38BDF8" stroke-width="3"></line>
    
    <!-- JunoAI Text -->
    <text x="50" y="110" font-family="Arial, sans-serif" font-size="30" fill="#ffffff" font-weight="bold" svgjs:data="{&quot;leading&quot;:&quot;1.3&quot;}">JunoAI</text>
</svg></svg></g></g><defs><clipPath id="SvgjsClipPath1026"><rect width="1000" height="1000" x="0" y="0" rx="350" ry="350"></rect></clipPath></defs></svg></g><g id="dark-icon"><svg xmlns="http://www.w3.org/2000/svg" version="1.1" xmlns:xlink="http://www.w3.org/1999/xlink" xmlns:svgjs="http://svgjs.dev/svgjs" width="1000" height="1000"><g clip-path="url(#SvgjsClipPath1027)"><rect width="1000" height="1000" fill="#ffffff"></rect><g transform="matrix(5,0,0,5,0,0)"><svg xmlns="http://www.w3.org/2000/svg" version="1.1" xmlns:xlink="http://www.w3.org/1999/xlink" xmlns:svgjs="http://svgjs.dev/svgjs" width="200" height="200"><svg width="200" height="200" viewBox="0 0 200 200" xmlns="http://www.w3.org/2000/svg">
    <!-- Background Circle -->
    <circle cx="100" cy="100" r="95" fill="#1E3A8A" stroke="#38BDF8" stroke-width="5"></circle>
    
    <!-- Neural Network Inspired Lines -->
    <line x1="50" y1="50" x2="150" y2="50" stroke="#38BDF8" stroke-width="3"></line>
    <line x1="50" y1="50" x2="50" y2="150" stroke="#38BDF8" stroke-width="3"></line>
    <line x1="150" y1="50" x2="150" y2="150" stroke="#38BDF8" stroke-width="3"></line>
    <line x1="50" y1="150" x2="150" y2="150" stroke="#38BDF8" stroke-width="3"></line>
    
    <!-- JunoAI Text -->
    <text x="50" y="110" font-family="Arial, sans-serif" font-size="30" fill="#ffffff" font-weight="bold" svgjs:data="{&quot;leading&quot;:&quot;1.3&quot;}">JunoAI</text>
</svg></svg></g></g><defs><clipPath id="SvgjsClipPath1027"><rect width="1000" height="1000" x="0" y="0" rx="350" ry="350"></rect></clipPath></defs></svg></g></svg>