<svg viewBox="0 0 600 400" xmlns="http://www.w3.org/2000/svg">
  <defs>
    <linearGradient id="grad1" x1="0%" y1="0%" x2="100%" y2="100%">
      <stop offset="0%" style="stop-color:#667eea;stop-opacity:1" />
      <stop offset="100%" style="stop-color:#764ba2;stop-opacity:1" />
    </linearGradient>
    <linearGradient id="grad2" x1="0%" y1="0%" x2="100%" y2="0%">
      <stop offset="0%" style="stop-color:#f093fb;stop-opacity:0.8" />
      <stop offset="100%" style="stop-color:#f5576c;stop-opacity:0.8" />
    </linearGradient>
  </defs>
  
  <!-- Background shapes -->
  <circle cx="500" cy="100" r="80" fill="url(#grad1)" opacity="0.2"/>
  <circle cx="100" cy="300" r="60" fill="url(#grad2)" opacity="0.2"/>
  
  <!-- Network nodes -->
  <g stroke="#667eea" stroke-width="1" fill="none" opacity="0.3">
    <line x1="150" y1="100" x2="250" y2="150"/>
    <line x1="250" y1="150" x2="350" y2="100"/>
    <line x1="250" y1="150" x2="300" y2="250"/>
    <line x1="300" y1="250" x2="400" y2="200"/>
    <line x1="300" y1="250" x2="200" y2="300"/>
  </g>
  
  <!-- Central server -->
  <rect x="240" y="170" width="120" height="80" rx="8" fill="#4a5568" opacity="0.9"/>
  <rect x="250" y="180" width="100" height="60" rx="6" fill="#2d3748"/>
  <circle cx="265" cy="195" r="3" fill="#48bb78"/>
  <circle cx="275" cy="195" r="3" fill="#48bb78"/>
  <circle cx="285" cy="195" r="3" fill="#48bb78"/>
  <rect x="260" y="210" width="80" height="2" fill="#4a5568"/>
  <rect x="260" y="220" width="80" height="2" fill="#4a5568"/>
  
  <!-- Cloud symbol -->
  <g transform="translate(400, 80)">
    <path d="M 30 40 C 10 40 10 20 30 20 C 30 10 50 10 50 20 C 70 20 70 40 50 40 Z" fill="white" opacity="0.9"/>
    <path d="M 25 30 L 35 30 M 30 25 L 30 35 M 40 27 L 48 27 M 44 23 L 44 31" stroke="#667eea" stroke-width="2" stroke-linecap="round"/>
  </g>
  
  <!-- Database cylinders -->
  <g transform="translate(150, 250)">
    <ellipse cx="30" cy="20" rx="25" ry="8" fill="#764ba2" opacity="0.8"/>
    <rect x="5" y="20" width="50" height="30" fill="#764ba2" opacity="0.8"/>
    <ellipse cx="30" cy="50" rx="25" ry="8" fill="#764ba2" opacity="0.9"/>
    <line x1="5" y1="30" x2="55" y2="30" stroke="white" stroke-width="1" opacity="0.5"/>
    <line x1="5" y1="40" x2="55" y2="40" stroke="white" stroke-width="1" opacity="0.5"/>
  </g>
  
  <!-- Security shield -->
  <g transform="translate(420, 280)">
    <path d="M 30 10 L 50 20 L 50 40 C 50 50 30 60 30 60 C 30 60 10 50 10 40 L 10 20 Z" fill="#48bb78" opacity="0.8"/>
    <path d="M 20 30 L 28 38 L 40 25" stroke="white" stroke-width="3" stroke-linecap="round" stroke-linejoin="round" fill="none"/>
  </g>
  
  <!-- Code window -->
  <g transform="translate(80, 100)">
    <rect x="0" y="0" width="100" height="70" rx="4" fill="#1a202c" opacity="0.9"/>
    <rect x="0" y="0" width="100" height="20" rx="4" fill="#2d3748"/>
    <circle cx="10" cy="10" r="3" fill="#fc8181"/>
    <circle cx="20" cy="10" r="3" fill="#f6e05e"/>
    <circle cx="30" cy="10" r="3" fill="#48bb78"/>
    <rect x="10" y="30" width="30" height="2" fill="#667eea"/>
    <rect x="45" y="30" width="20" height="2" fill="#f6e05e"/>
    <rect x="10" y="40" width="40" height="2" fill="#48bb78"/>
    <rect x="10" y="50" width="25" height="2" fill="#667eea"/>
    <rect x="40" y="50" width="30" height="2" fill="#fc8181"/>
  </g>
  
  <!-- Floating particles -->
  <circle cx="450" cy="180" r="2" fill="#667eea" opacity="0.6"/>
  <circle cx="380" cy="320" r="2" fill="#764ba2" opacity="0.6"/>
  <circle cx="120" cy="180" r="2" fill="#f093fb" opacity="0.6"/>
  <circle cx="520" cy="250" r="2" fill="#f5576c" opacity="0.6"/>
</svg>